<svg width="240" height="38" viewBox="0 0 240 38" fill="none" xmlns="http://www.w3.org/2000/svg">
<path d="M11.2905 6.88796C10.4745 6.88796 9.88652 7.07996 9.52652 7.46395C9.16652 7.84796 8.98652 8.49596 8.98652 9.40796V10.884H13.4865L12.8745 14.844H8.98652V30H3.29852V14.844H0.418518V10.884H3.29852V9.19196C3.29852 7.27196 3.92252 5.71196 5.17052 4.51196C6.44252 3.28796 8.25452 2.67595 10.6065 2.67595C12.5025 2.67595 14.2425 3.08396 15.8265 3.89996L14.2785 7.60796C13.3185 7.12796 12.3225 6.88796 11.2905 6.88796Z" fill="#A3A3A3"/>
<path d="M25.7425 10.344C26.4385 10.344 27.0746 10.428 27.6506 10.596L26.7505 16.104C26.0305 15.936 25.4546 15.852 25.0226 15.852C23.8946 15.852 23.0305 16.248 22.4305 17.04C21.8545 17.808 21.3985 18.972 21.0625 20.532V30H15.3745V10.884H20.3426L20.8106 14.592C21.2426 13.272 21.8906 12.24 22.7546 11.496C23.6426 10.728 24.6385 10.344 25.7425 10.344Z" fill="#A3A3A3"/>
<path d="M37.0139 10.272C39.9419 10.272 42.2339 11.172 43.8899 12.972C45.5459 14.748 46.3739 17.244 46.3739 20.46C46.3739 22.5 45.9899 24.288 45.2219 25.824C44.4779 27.336 43.3979 28.512 41.9819 29.352C40.5899 30.192 38.9339 30.612 37.0139 30.612C34.1099 30.612 31.8179 29.724 30.1379 27.948C28.4819 26.148 27.6539 23.64 27.6539 20.424C27.6539 18.384 28.0259 16.608 28.7699 15.096C29.5379 13.56 30.6179 12.372 32.0099 11.532C33.4259 10.692 35.0939 10.272 37.0139 10.272ZM37.0139 14.448C35.8619 14.448 34.9979 14.94 34.4219 15.924C33.8459 16.884 33.5579 18.384 33.5579 20.424C33.5579 22.512 33.8339 24.036 34.3859 24.996C34.9619 25.956 35.8379 26.436 37.0139 26.436C38.1659 26.436 39.0299 25.956 39.6059 24.996C40.1819 24.012 40.4699 22.5 40.4699 20.46C40.4699 18.372 40.1819 16.848 39.6059 15.888C39.0539 14.928 38.1899 14.448 37.0139 14.448Z" fill="#A3A3A3"/>
<path d="M60.9534 10.272C62.6094 10.272 63.9054 10.776 64.8414 11.784C65.7774 12.792 66.2454 14.208 66.2454 16.032V30H60.5574V17.004C60.5574 16.044 60.4014 15.384 60.0894 15.024C59.8014 14.64 59.3574 14.448 58.7574 14.448C57.6054 14.448 56.5014 15.276 55.4454 16.932V30H49.7574V10.884H54.7254L55.1214 13.152C55.9374 12.192 56.8134 11.472 57.7494 10.992C58.7094 10.512 59.7774 10.272 60.9534 10.272Z" fill="#A3A3A3"/>
<path d="M82.5227 29.1C81.8267 29.58 81.0107 29.952 80.0747 30.216C79.1627 30.48 78.2507 30.612 77.3387 30.612C73.1627 30.588 71.0747 28.284 71.0747 23.7V14.844H68.3747V10.884H71.0747V6.74396L76.7627 6.09596V10.884H81.1547L80.5427 14.844H76.7627V23.628C76.7627 24.516 76.9067 25.152 77.1947 25.536C77.4827 25.92 77.9387 26.112 78.5627 26.112C79.2107 26.112 79.8947 25.908 80.6147 25.5L82.5227 29.1Z" fill="#A3A3A3"/>
<path d="M99.1916 24.456C99.1916 25.176 99.2876 25.704 99.4796 26.04C99.6956 26.376 100.032 26.628 100.488 26.796L99.2996 30.504C98.1236 30.408 97.1635 30.156 96.4195 29.748C95.6755 29.316 95.0996 28.644 94.6916 27.732C93.4436 29.652 91.5235 30.612 88.9315 30.612C87.0355 30.612 85.5235 30.06 84.3955 28.956C83.2675 27.852 82.7036 26.412 82.7036 24.636C82.7036 22.548 83.4716 20.952 85.0076 19.848C86.5436 18.744 88.7635 18.192 91.6675 18.192H93.6115V17.364C93.6115 16.236 93.3715 15.468 92.8915 15.06C92.4115 14.628 91.5716 14.412 90.3716 14.412C89.7476 14.412 88.9915 14.508 88.1035 14.7C87.2155 14.868 86.3035 15.108 85.3675 15.42L84.0715 11.676C85.2715 11.22 86.4956 10.872 87.7436 10.632C89.0156 10.392 90.1916 10.272 91.2716 10.272C94.0076 10.272 96.0115 10.836 97.2835 11.964C98.5555 13.092 99.1916 14.784 99.1916 17.04V24.456ZM90.5875 26.544C91.8835 26.544 92.8915 25.932 93.6115 24.708V21.324H92.2076C90.9115 21.324 89.9395 21.552 89.2915 22.008C88.6675 22.464 88.3556 23.172 88.3556 24.132C88.3556 24.9 88.5475 25.5 88.9315 25.932C89.3395 26.34 89.8915 26.544 90.5875 26.544Z" fill="#A3A3A3"/>
<path d="M114.918 10.272C116.574 10.272 117.87 10.776 118.806 11.784C119.742 12.792 120.21 14.208 120.21 16.032V30H114.522V17.004C114.522 16.044 114.366 15.384 114.054 15.024C113.766 14.64 113.322 14.448 112.722 14.448C111.57 14.448 110.466 15.276 109.41 16.932V30H103.722V10.884H108.69L109.086 13.152C109.902 12.192 110.778 11.472 111.714 10.992C112.674 10.512 113.742 10.272 114.918 10.272Z" fill="#A3A3A3"/>
<path d="M142.104 12C140.856 12.504 139.02 12.756 136.596 12.756C137.844 13.284 138.756 13.932 139.332 14.7C139.908 15.468 140.196 16.464 140.196 17.688C140.196 18.912 139.872 20.016 139.224 21C138.576 21.96 137.64 22.716 136.416 23.268C135.216 23.82 133.8 24.096 132.168 24.096C131.4 24.096 130.668 24.024 129.972 23.88C129.78 23.976 129.624 24.132 129.504 24.348C129.408 24.54 129.36 24.744 129.36 24.96C129.36 25.32 129.492 25.608 129.756 25.824C130.044 26.016 130.608 26.112 131.448 26.112H134.328C135.792 26.112 137.076 26.352 138.18 26.832C139.284 27.312 140.136 27.972 140.736 28.812C141.336 29.652 141.636 30.6 141.636 31.656C141.636 33.648 140.772 35.196 139.044 36.3C137.34 37.428 134.868 37.992 131.628 37.992C129.3 37.992 127.464 37.74 126.12 37.236C124.776 36.756 123.828 36.072 123.276 35.184C122.748 34.296 122.484 33.18 122.484 31.836H127.596C127.596 32.412 127.704 32.868 127.92 33.204C128.16 33.54 128.58 33.792 129.18 33.96C129.78 34.128 130.644 34.212 131.772 34.212C133.332 34.212 134.412 34.02 135.012 33.636C135.612 33.276 135.912 32.748 135.912 32.052C135.912 31.476 135.684 31.02 135.228 30.684C134.772 30.348 134.088 30.18 133.176 30.18H130.404C128.436 30.18 126.96 29.832 125.976 29.136C125.016 28.416 124.536 27.504 124.536 26.4C124.536 25.704 124.74 25.032 125.148 24.384C125.556 23.712 126.108 23.16 126.804 22.728C125.604 22.08 124.728 21.324 124.176 20.46C123.648 19.572 123.384 18.504 123.384 17.256C123.384 15.12 124.152 13.428 125.688 12.18C127.224 10.908 129.252 10.272 131.772 10.272C133.692 10.32 135.312 10.128 136.632 9.69596C137.976 9.26396 139.356 8.62796 140.772 7.78796L142.104 12ZM131.916 14.016C131.028 14.016 130.32 14.304 129.792 14.88C129.288 15.432 129.036 16.2 129.036 17.184C129.036 18.216 129.288 19.02 129.792 19.596C130.32 20.148 131.028 20.424 131.916 20.424C132.852 20.424 133.56 20.148 134.04 19.596C134.544 19.044 134.796 18.216 134.796 17.112C134.796 15.048 133.836 14.016 131.916 14.016Z" fill="#A3A3A3"/>
<path d="M150.016 10.884V30H144.328V10.884H150.016ZM147.136 0.803955C148.12 0.803955 148.924 1.11596 149.548 1.73996C150.196 2.33996 150.52 3.10796 150.52 4.04396C150.52 4.97996 150.196 5.75996 149.548 6.38396C148.924 6.98396 148.12 7.28396 147.136 7.28396C146.152 7.28396 145.348 6.98396 144.724 6.38396C144.1 5.75996 143.788 4.97996 143.788 4.04396C143.788 3.10796 144.1 2.33996 144.724 1.73996C145.348 1.11596 146.152 0.803955 147.136 0.803955Z" fill="#A3A3A3"/>
<path d="M171.156 20.064C171.156 20.856 171.12 21.54 171.048 22.116H159.204C159.396 23.724 159.852 24.852 160.572 25.5C161.292 26.148 162.288 26.472 163.56 26.472C164.328 26.472 165.072 26.34 165.792 26.076C166.512 25.788 167.292 25.356 168.132 24.78L170.472 27.948C168.24 29.724 165.756 30.612 163.02 30.612C159.924 30.612 157.548 29.7 155.892 27.876C154.236 26.052 153.408 23.604 153.408 20.532C153.408 18.588 153.756 16.848 154.452 15.312C155.148 13.752 156.168 12.528 157.512 11.64C158.856 10.728 160.464 10.272 162.336 10.272C165.096 10.272 167.256 11.136 168.816 12.864C170.376 14.592 171.156 16.992 171.156 20.064ZM165.576 18.444C165.528 15.516 164.496 14.052 162.48 14.052C161.496 14.052 160.728 14.412 160.176 15.132C159.648 15.852 159.324 17.04 159.204 18.696H165.576V18.444Z" fill="#A3A3A3"/>
<path d="M176.088 24.096C176.976 24.096 177.732 24.42 178.356 25.068C179.004 25.692 179.328 26.448 179.328 27.336C179.328 28.248 179.004 29.028 178.356 29.676C177.732 30.3 176.976 30.612 176.088 30.612C175.176 30.612 174.396 30.3 173.748 29.676C173.124 29.028 172.812 28.248 172.812 27.336C172.812 26.448 173.124 25.692 173.748 25.068C174.396 24.42 175.176 24.096 176.088 24.096Z" fill="#A3A3A3"/>
<path d="M199.432 3.28796V30H194.392L194.104 27.768C192.76 29.664 190.948 30.612 188.668 30.612C186.292 30.612 184.48 29.7 183.232 27.876C182.008 26.052 181.396 23.556 181.396 20.388C181.396 18.444 181.72 16.704 182.368 15.168C183.016 13.632 183.928 12.432 185.104 11.568C186.304 10.704 187.672 10.272 189.208 10.272C191.032 10.272 192.544 10.872 193.744 12.072V2.67595L199.432 3.28796ZM190.432 26.436C191.752 26.436 192.856 25.716 193.744 24.276V16.032C193.288 15.48 192.82 15.072 192.34 14.808C191.884 14.544 191.356 14.412 190.756 14.412C189.7 14.412 188.86 14.904 188.236 15.888C187.612 16.872 187.3 18.384 187.3 20.424C187.3 22.656 187.564 24.216 188.092 25.104C188.644 25.992 189.424 26.436 190.432 26.436Z" fill="#A3A3A3"/>
<path d="M220.55 20.064C220.55 20.856 220.514 21.54 220.442 22.116H208.598C208.79 23.724 209.246 24.852 209.966 25.5C210.686 26.148 211.682 26.472 212.954 26.472C213.722 26.472 214.466 26.34 215.186 26.076C215.906 25.788 216.686 25.356 217.526 24.78L219.866 27.948C217.634 29.724 215.15 30.612 212.414 30.612C209.318 30.612 206.942 29.7 205.286 27.876C203.63 26.052 202.802 23.604 202.802 20.532C202.802 18.588 203.15 16.848 203.846 15.312C204.542 13.752 205.562 12.528 206.906 11.64C208.25 10.728 209.858 10.272 211.73 10.272C214.49 10.272 216.65 11.136 218.21 12.864C219.77 14.592 220.55 16.992 220.55 20.064ZM214.97 18.444C214.922 15.516 213.89 14.052 211.874 14.052C210.89 14.052 210.122 14.412 209.57 15.132C209.042 15.852 208.718 17.04 208.598 18.696H214.97V18.444Z" fill="#A3A3A3"/>
<path d="M239.916 10.884L233.904 30H227.172L221.016 10.884H227.208L230.592 25.68L234.12 10.884H239.916Z" fill="#A3A3A3"/>
</svg>
