<svg width="60" height="61" viewBox="0 0 60 61" fill="none" xmlns="http://www.w3.org/2000/svg">
<g clip-path="url(#clip0_8_788)">
<path d="M30 0.00805664C13.435 0.00805664 0 13.4406 0 30.0081C0 43.2631 8.595 54.5081 20.5175 58.4756C22.015 58.7531 22.5 57.8231 22.5 57.0331V51.4481C14.155 53.2631 12.4175 47.9081 12.4175 47.9081C11.0525 44.4406 9.085 43.5181 9.085 43.5181C6.3625 41.6556 9.2925 41.6956 9.2925 41.6956C12.305 41.9056 13.89 44.7881 13.89 44.7881C16.565 49.3731 20.9075 48.0481 22.62 47.2806C22.8875 45.3431 23.665 44.0181 24.525 43.2706C17.8625 42.5081 10.8575 39.9356 10.8575 28.4431C10.8575 25.1656 12.03 22.4906 13.9475 20.3906C13.6375 19.6331 12.61 16.5806 14.24 12.4506C14.24 12.4506 16.76 11.6456 22.4925 15.5256C24.885 14.8606 27.45 14.5281 30 14.5156C32.55 14.5281 35.1175 14.8606 37.515 15.5256C43.2425 11.6456 45.7575 12.4506 45.7575 12.4506C47.39 16.5831 46.3625 19.6356 46.0525 20.3906C47.9775 22.4906 49.14 25.1681 49.14 28.4431C49.14 39.9656 42.1225 42.5031 35.4425 43.2456C36.5175 44.1756 37.5 46.0006 37.5 48.8006V57.0331C37.5 57.8306 37.98 58.7681 39.5025 58.4731C51.415 54.5006 60 43.2581 60 30.0081C60 13.4406 46.5675 0.00805664 30 0.00805664Z" fill="white"/>
</g>
<defs>
<clipPath id="clip0_8_788">
<rect width="60" height="60" fill="white" transform="translate(0 0.00805664)"/>
</clipPath>
</defs>
</svg>
