<svg width="60" height="61" viewBox="0 0 60 61" fill="none" xmlns="http://www.w3.org/2000/svg">
<g clip-path="url(#clip0_8_790)">
<path d="M12.45 8.75806C12.45 12.2106 9.675 15.0081 6.25 15.0081C2.825 15.0081 0.05 12.2106 0.05 8.75806C0.05 5.30806 2.825 2.50806 6.25 2.50806C9.675 2.50806 12.45 5.30806 12.45 8.75806ZM12.5 20.0081H0V60.0081H12.5V20.0081ZM32.455 20.0081H20.035V60.0081H32.4575V39.0106C32.4575 27.3356 47.53 26.3806 47.53 39.0106V60.0081H60V34.6806C60 14.9806 37.695 15.6981 32.455 25.3956V20.0081Z" fill="white"/>
</g>
<defs>
<clipPath id="clip0_8_790">
<rect width="60" height="60" fill="white" transform="translate(0 0.00805664)"/>
</clipPath>
</defs>
</svg>
