<svg width="359" height="39" viewBox="0 0 359 39" fill="none" xmlns="http://www.w3.org/2000/svg">
<path d="M16.48 30.9999L15.184 25.6359H7.91198L6.65198 30.9999H0.531982L8.05598 6.05194H15.22L22.744 30.9999H16.48ZM8.91998 21.3519H14.176L11.548 10.3359L8.91998 21.3519Z" fill="#141414"/>
<path d="M35.6624 11.2719C37.3184 11.2719 38.6144 11.7759 39.5504 12.7839C40.4864 13.7919 40.9544 15.2079 40.9544 17.0319V30.9999H35.2664V18.0039C35.2664 17.0439 35.1104 16.3839 34.7984 16.0239C34.5104 15.6399 34.0664 15.4479 33.4664 15.4479C32.3144 15.4479 31.2104 16.2759 30.1544 17.9319V30.9999H24.4664V11.8839H29.4344L29.8304 14.1519C30.6464 13.1919 31.5224 12.4719 32.4584 11.9919C33.4184 11.5119 34.4864 11.2719 35.6624 11.2719Z" fill="#141414"/>
<path d="M62.8477 12.9999C61.5997 13.5039 59.7637 13.7559 57.3397 13.7559C58.5877 14.2839 59.4997 14.9319 60.0757 15.6999C60.6517 16.4679 60.9397 17.4639 60.9397 18.6879C60.9397 19.9119 60.6157 21.0159 59.9677 21.9999C59.3197 22.9599 58.3837 23.7159 57.1597 24.2679C55.9597 24.8199 54.5437 25.0959 52.9117 25.0959C52.1437 25.0959 51.4117 25.0239 50.7157 24.8799C50.5237 24.9759 50.3677 25.1319 50.2477 25.3479C50.1517 25.5399 50.1037 25.7439 50.1037 25.9599C50.1037 26.3199 50.2357 26.6079 50.4997 26.8239C50.7877 27.0159 51.3517 27.1119 52.1917 27.1119H55.0717C56.5357 27.1119 57.8197 27.3519 58.9237 27.8319C60.0277 28.3119 60.8797 28.9719 61.4797 29.8119C62.0797 30.6519 62.3797 31.5999 62.3797 32.6559C62.3797 34.6479 61.5157 36.1959 59.7877 37.2999C58.0837 38.4279 55.6117 38.9919 52.3717 38.9919C50.0437 38.9919 48.2077 38.7399 46.8637 38.2359C45.5197 37.7559 44.5717 37.0719 44.0197 36.1839C43.4917 35.2959 43.2277 34.1799 43.2277 32.8359H48.3397C48.3397 33.4119 48.4477 33.8679 48.6637 34.2039C48.9037 34.5399 49.3237 34.7919 49.9237 34.9599C50.5237 35.1279 51.3877 35.2119 52.5157 35.2119C54.0757 35.2119 55.1557 35.0199 55.7557 34.6359C56.3557 34.2759 56.6557 33.7479 56.6557 33.0519C56.6557 32.4759 56.4277 32.0199 55.9717 31.6839C55.5157 31.3479 54.8317 31.1799 53.9197 31.1799H51.1477C49.1797 31.1799 47.7037 30.8319 46.7197 30.1359C45.7597 29.4159 45.2797 28.5039 45.2797 27.3999C45.2797 26.7039 45.4837 26.0319 45.8917 25.3839C46.2997 24.7119 46.8517 24.1599 47.5477 23.7279C46.3477 23.0799 45.4717 22.3239 44.9197 21.4599C44.3917 20.5719 44.1277 19.5039 44.1277 18.2559C44.1277 16.1199 44.8957 14.4279 46.4317 13.1799C47.9677 11.9079 49.9957 11.2719 52.5157 11.2719C54.4357 11.3199 56.0557 11.1279 57.3757 10.6959C58.7197 10.2639 60.0997 9.62794 61.5157 8.78794L62.8477 12.9999ZM52.6597 15.0159C51.7717 15.0159 51.0637 15.3039 50.5357 15.8799C50.0317 16.4319 49.7797 17.1999 49.7797 18.1839C49.7797 19.2159 50.0317 20.0199 50.5357 20.5959C51.0637 21.1479 51.7717 21.4239 52.6597 21.4239C53.5957 21.4239 54.3037 21.1479 54.7837 20.5959C55.2877 20.0439 55.5397 19.2159 55.5397 18.1119C55.5397 16.0479 54.5797 15.0159 52.6597 15.0159Z" fill="#141414"/>
<path d="M80.9312 21.0639C80.9312 21.8559 80.8952 22.5399 80.8232 23.1159H68.9792C69.1712 24.7239 69.6272 25.8519 70.3472 26.4999C71.0672 27.1479 72.0632 27.4719 73.3352 27.4719C74.1032 27.4719 74.8472 27.3399 75.5672 27.0759C76.2872 26.7879 77.0672 26.3559 77.9072 25.7799L80.2472 28.9479C78.0152 30.7239 75.5312 31.6119 72.7952 31.6119C69.6992 31.6119 67.3232 30.6999 65.6672 28.8759C64.0112 27.0519 63.1832 24.6039 63.1832 21.5319C63.1832 19.5879 63.5312 17.8479 64.2272 16.3119C64.9232 14.7519 65.9432 13.5279 67.2872 12.6399C68.6312 11.7279 70.2392 11.2719 72.1112 11.2719C74.8712 11.2719 77.0312 12.1359 78.5912 13.8639C80.1512 15.5919 80.9312 17.9919 80.9312 21.0639ZM75.3512 19.4439C75.3032 16.5159 74.2712 15.0519 72.2552 15.0519C71.2712 15.0519 70.5032 15.4119 69.9512 16.1319C69.4232 16.8519 69.0992 18.0399 68.9792 19.6959H75.3512V19.4439ZM74.8112 0.939941L77.0432 5.18794L68.5472 8.60794L66.9632 5.69194L74.8112 0.939941Z" fill="#141414"/>
<path d="M89.2025 31.6119C87.5465 31.6119 86.2505 31.1439 85.3145 30.2079C84.4025 29.2479 83.9465 27.8919 83.9465 26.1399V4.28794L89.6345 3.67594V25.9239C89.6345 26.7159 89.9585 27.1119 90.6065 27.1119C90.9425 27.1119 91.2545 27.0519 91.5425 26.9319L92.6585 30.9639C91.6265 31.3959 90.4745 31.6119 89.2025 31.6119Z" fill="#141414"/>
<path d="M100.502 11.8839V30.9999H94.814V11.8839H100.502ZM97.622 1.80394C98.606 1.80394 99.41 2.11594 100.034 2.73994C100.682 3.33994 101.006 4.10794 101.006 5.04394C101.006 5.97994 100.682 6.75994 100.034 7.38394C99.41 7.98394 98.606 8.28394 97.622 8.28394C96.638 8.28394 95.834 7.98394 95.21 7.38394C94.586 6.75994 94.274 5.97994 94.274 5.04394C94.274 4.10794 94.586 3.33994 95.21 2.73994C95.834 2.11594 96.638 1.80394 97.622 1.80394Z" fill="#141414"/>
<path d="M113.254 11.2719C114.574 11.2719 115.762 11.4639 116.818 11.8479C117.874 12.2319 118.87 12.8199 119.806 13.6119L117.358 16.9959C116.158 16.0839 114.946 15.6279 113.722 15.6279C112.45 15.6279 111.49 16.0959 110.842 17.0319C110.194 17.9679 109.87 19.4799 109.87 21.5679C109.87 23.5839 110.194 25.0119 110.842 25.8519C111.49 26.6919 112.426 27.1119 113.65 27.1119C114.298 27.1119 114.886 27.0159 115.414 26.8239C115.942 26.6079 116.578 26.2719 117.322 25.8159L119.806 29.3439C117.91 30.8559 115.762 31.6119 113.362 31.6119C111.418 31.6119 109.738 31.2039 108.322 30.3879C106.906 29.5479 105.814 28.3839 105.046 26.8959C104.278 25.3839 103.894 23.6199 103.894 21.6039C103.894 19.5879 104.278 17.7999 105.046 16.2399C105.814 14.6799 106.906 13.4679 108.322 12.6039C109.738 11.7159 111.382 11.2719 113.254 11.2719Z" fill="#141414"/>
<path d="M137.041 25.4559C137.041 26.1759 137.137 26.7039 137.329 27.0399C137.545 27.3759 137.881 27.6279 138.337 27.7959L137.149 31.5039C135.973 31.4079 135.013 31.1559 134.269 30.7479C133.525 30.3159 132.949 29.6439 132.541 28.7319C131.293 30.6519 129.373 31.6119 126.781 31.6119C124.885 31.6119 123.373 31.0599 122.245 29.9559C121.117 28.8519 120.553 27.4119 120.553 25.6359C120.553 23.5479 121.321 21.9519 122.857 20.8479C124.393 19.7439 126.613 19.1919 129.517 19.1919H131.461V18.3639C131.461 17.2359 131.221 16.4679 130.741 16.0599C130.261 15.6279 129.421 15.4119 128.221 15.4119C127.597 15.4119 126.841 15.5079 125.953 15.6999C125.065 15.8679 124.153 16.1079 123.217 16.4199L121.921 12.6759C123.121 12.2199 124.345 11.8719 125.593 11.6319C126.865 11.3919 128.041 11.2719 129.121 11.2719C131.857 11.2719 133.861 11.8359 135.133 12.9639C136.405 14.0919 137.041 15.7839 137.041 18.0399V25.4559ZM128.437 27.5439C129.733 27.5439 130.741 26.9319 131.461 25.7079V22.3239H130.057C128.761 22.3239 127.789 22.5519 127.141 23.0079C126.517 23.4639 126.205 24.1719 126.205 25.1319C126.205 25.8999 126.397 26.4999 126.781 26.9319C127.189 27.3399 127.741 27.5439 128.437 27.5439Z" fill="#141414"/>
<path d="M163.363 30.9999L162.067 25.6359H154.795L153.535 30.9999H147.415L154.939 6.05194H162.103L169.627 30.9999H163.363ZM155.803 21.3519H161.059L158.431 10.3359L155.803 21.3519Z" fill="#141414"/>
<path d="M176.425 31.6119C174.769 31.6119 173.473 31.1439 172.537 30.2079C171.625 29.2479 171.169 27.8919 171.169 26.1399V4.28794L176.857 3.67594V25.9239C176.857 26.7159 177.181 27.1119 177.829 27.1119C178.165 27.1119 178.477 27.0519 178.765 26.9319L179.881 30.9639C178.849 31.3959 177.697 31.6119 176.425 31.6119Z" fill="#141414"/>
<path d="M192.873 11.2719C195.153 11.2719 196.905 12.1719 198.129 13.9719C199.353 15.7479 199.965 18.2439 199.965 21.4599C199.965 23.4279 199.653 25.1799 199.029 26.7159C198.429 28.2519 197.553 29.4519 196.401 30.3159C195.273 31.1799 193.929 31.6119 192.369 31.6119C191.337 31.6119 190.389 31.3959 189.525 30.9639C188.685 30.5319 187.965 29.9319 187.365 29.1639L187.077 30.9999H182.037V4.28794L187.725 3.67594V13.8279C188.301 13.0359 189.033 12.4119 189.921 11.9559C190.833 11.4999 191.817 11.2719 192.873 11.2719ZM190.713 27.4719C192.945 27.4719 194.061 25.4679 194.061 21.4599C194.061 19.1799 193.797 17.6079 193.269 16.7439C192.741 15.8799 191.973 15.4479 190.965 15.4479C189.693 15.4479 188.613 16.1919 187.725 17.6799V25.6359C188.085 26.2119 188.517 26.6679 189.021 27.0039C189.549 27.3159 190.113 27.4719 190.713 27.4719Z" fill="#141414"/>
<path d="M219.645 30.9999H214.713L214.461 28.5879C213.069 30.6039 211.137 31.6119 208.665 31.6119C206.913 31.6119 205.581 31.0839 204.669 30.0279C203.781 28.9719 203.337 27.4959 203.337 25.5999V11.8839H209.025V24.8799C209.025 25.8159 209.169 26.4759 209.457 26.8599C209.769 27.2199 210.237 27.3999 210.861 27.3999C212.061 27.3999 213.093 26.6559 213.957 25.1679V11.8839H219.645V30.9999Z" fill="#141414"/>
<path d="M241.255 11.8839V38.9919L235.567 38.3799V29.1639C234.295 30.7959 232.603 31.6119 230.491 31.6119C228.115 31.6119 226.303 30.6999 225.055 28.8759C223.831 27.0519 223.219 24.5559 223.219 21.3879C223.219 19.4199 223.543 17.6799 224.191 16.1679C224.839 14.6319 225.751 13.4319 226.927 12.5679C228.127 11.7039 229.507 11.2719 231.067 11.2719C233.011 11.2719 234.655 12.0279 235.999 13.5399L236.287 11.8839H241.255ZM232.255 27.4359C233.575 27.4359 234.679 26.7159 235.567 25.2759V17.0319C235.111 16.4799 234.655 16.0719 234.199 15.8079C233.743 15.5439 233.215 15.4119 232.615 15.4119C231.535 15.4119 230.683 15.9039 230.059 16.8879C229.435 17.8479 229.123 19.3599 229.123 21.4239C229.123 23.6559 229.387 25.2159 229.915 26.1039C230.467 26.9919 231.247 27.4359 232.255 27.4359Z" fill="#141414"/>
<path d="M261.833 30.9999H256.901L256.649 28.5879C255.257 30.6039 253.325 31.6119 250.853 31.6119C249.101 31.6119 247.769 31.0839 246.857 30.0279C245.969 28.9719 245.525 27.4959 245.525 25.5999V11.8839H251.213V24.8799C251.213 25.8159 251.357 26.4759 251.645 26.8599C251.957 27.2199 252.425 27.3999 253.049 27.3999C254.249 27.3999 255.281 26.6559 256.145 25.1679V11.8839H261.833V30.9999Z" fill="#141414"/>
<path d="M282.974 21.0639C282.974 21.8559 282.938 22.5399 282.866 23.1159H271.022C271.214 24.7239 271.67 25.8519 272.39 26.4999C273.11 27.1479 274.106 27.4719 275.378 27.4719C276.146 27.4719 276.89 27.3399 277.61 27.0759C278.33 26.7879 279.11 26.3559 279.95 25.7799L282.29 28.9479C280.058 30.7239 277.574 31.6119 274.838 31.6119C271.742 31.6119 269.366 30.6999 267.71 28.8759C266.054 27.0519 265.226 24.6039 265.226 21.5319C265.226 19.5879 265.574 17.8479 266.27 16.3119C266.966 14.7519 267.986 13.5279 269.33 12.6399C270.674 11.7279 272.282 11.2719 274.154 11.2719C276.914 11.2719 279.074 12.1359 280.634 13.8639C282.194 15.5919 282.974 17.9919 282.974 21.0639ZM277.394 19.4439C277.346 16.5159 276.314 15.0519 274.298 15.0519C273.314 15.0519 272.546 15.4119 271.994 16.1319C271.466 16.8519 271.142 18.0399 271.022 19.6959H277.394V19.4439Z" fill="#141414"/>
<path d="M296.537 11.3439C297.233 11.3439 297.869 11.4279 298.445 11.5959L297.545 17.1039C296.825 16.9359 296.249 16.8519 295.817 16.8519C294.689 16.8519 293.825 17.2479 293.225 18.0399C292.649 18.8079 292.193 19.9719 291.857 21.5319V30.9999H286.169V11.8839H291.137L291.605 15.5919C292.037 14.2719 292.685 13.2399 293.549 12.4959C294.437 11.7279 295.433 11.3439 296.537 11.3439Z" fill="#141414"/>
<path d="M316.665 11.8839V38.9919L310.977 38.3799V29.1639C309.705 30.7959 308.013 31.6119 305.901 31.6119C303.525 31.6119 301.713 30.6999 300.465 28.8759C299.241 27.0519 298.629 24.5559 298.629 21.3879C298.629 19.4199 298.953 17.6799 299.601 16.1679C300.249 14.6319 301.161 13.4319 302.337 12.5679C303.537 11.7039 304.917 11.2719 306.477 11.2719C308.421 11.2719 310.065 12.0279 311.409 13.5399L311.697 11.8839H316.665ZM307.665 27.4359C308.985 27.4359 310.089 26.7159 310.977 25.2759V17.0319C310.521 16.4799 310.065 16.0719 309.609 15.8079C309.153 15.5439 308.625 15.4119 308.025 15.4119C306.945 15.4119 306.093 15.9039 305.469 16.8879C304.845 17.8479 304.533 19.3599 304.533 21.4239C304.533 23.6559 304.797 25.2159 305.325 26.1039C305.877 26.9919 306.657 27.4359 307.665 27.4359Z" fill="#141414"/>
<path d="M337.243 30.9999H332.311L332.059 28.5879C330.667 30.6039 328.735 31.6119 326.263 31.6119C324.511 31.6119 323.179 31.0839 322.267 30.0279C321.379 28.9719 320.935 27.4959 320.935 25.5999V11.8839H326.623V24.8799C326.623 25.8159 326.767 26.4759 327.055 26.8599C327.367 27.2199 327.835 27.3999 328.459 27.3999C329.659 27.3999 330.691 26.6559 331.555 25.1679V11.8839H337.243V30.9999Z" fill="#141414"/>
<path d="M358.384 21.0639C358.384 21.8559 358.348 22.5399 358.276 23.1159H346.432C346.624 24.7239 347.08 25.8519 347.8 26.4999C348.52 27.1479 349.516 27.4719 350.788 27.4719C351.556 27.4719 352.3 27.3399 353.02 27.0759C353.74 26.7879 354.52 26.3559 355.36 25.7799L357.7 28.9479C355.468 30.7239 352.984 31.6119 350.248 31.6119C347.152 31.6119 344.776 30.6999 343.12 28.8759C341.464 27.0519 340.636 24.6039 340.636 21.5319C340.636 19.5879 340.984 17.8479 341.68 16.3119C342.376 14.7519 343.396 13.5279 344.74 12.6399C346.084 11.7279 347.692 11.2719 349.564 11.2719C352.324 11.2719 354.484 12.1359 356.044 13.8639C357.604 15.5919 358.384 17.9919 358.384 21.0639ZM352.804 19.4439C352.756 16.5159 351.724 15.0519 349.708 15.0519C348.724 15.0519 347.956 15.4119 347.404 16.1319C346.876 16.8519 346.552 18.0399 346.432 19.6959H352.804V19.4439Z" fill="#141414"/>
</svg>
