<svg width="60" height="60" viewBox="0 0 60 60" fill="none" xmlns="http://www.w3.org/2000/svg">
<g clip-path="url(#clip0_99_4)">
<path d="M30 6.03828e-06C23.0051 -0.00443006 16.2285 2.43554 10.842 6.89803C5.45549 11.3605 1.79764 17.565 0.500936 24.4386C-0.795768 31.3123 0.350189 38.423 3.74067 44.5412C7.13114 50.6595 12.553 55.4007 19.0687 57.945C18.8062 55.5713 18.5662 51.9225 19.17 49.3313C19.7175 46.9875 22.6875 34.4175 22.6875 34.4175C22.6875 34.4175 21.7912 32.6213 21.7912 29.9663C21.7912 25.7925 24.21 22.68 27.2212 22.68C29.7787 22.68 31.0162 24.6 31.0162 26.9063C31.0162 29.4788 29.3775 33.3263 28.53 36.8925C27.825 39.8775 30.03 42.315 32.9737 42.315C38.3062 42.315 42.405 36.69 42.405 28.575C42.405 21.3938 37.2412 16.3725 29.8725 16.3725C21.3375 16.3725 16.3275 22.7738 16.3275 29.3888C16.3275 31.9688 17.3212 34.7325 18.5587 36.2363C18.6653 36.3496 18.7407 36.4887 18.7775 36.6398C18.8143 36.791 18.8113 36.9491 18.7687 37.0988C18.54 38.0438 18.0337 40.0838 17.9362 40.5C17.805 41.0475 17.5012 41.1638 16.9312 40.9013C13.1812 39.1575 10.8412 33.6788 10.8412 29.2763C10.8412 19.815 17.7187 11.1263 30.6637 11.1263C41.07 11.1263 49.1587 18.54 49.1587 28.4513C49.1587 38.79 42.6375 47.1113 33.5925 47.1113C30.5512 47.1113 27.6937 45.5325 26.715 43.665L24.8475 50.7975C24.1687 53.4038 22.3387 56.67 21.1162 58.6613C25.2411 59.9366 29.5927 60.3066 33.8737 59.746C38.1547 59.1853 42.2643 57.7072 45.9216 55.4126C49.579 53.1181 52.698 50.0611 55.0655 46.4505C57.4331 42.84 58.9934 38.7609 59.6399 34.492C60.2863 30.2231 60.0038 25.865 58.8115 21.7153C57.6191 17.5657 55.5452 13.7222 52.7312 10.4476C49.9173 7.17303 46.4296 4.5444 42.5066 2.74131C38.5836 0.938219 34.3175 0.00315864 30 6.03828e-06V6.03828e-06Z" fill="white"/>
</g>
<defs>
<clipPath id="clip0_99_4">
<rect width="60" height="60" fill="white"/>
</clipPath>
</defs>
</svg>
