<svg width="60" height="61" viewBox="0 0 60 61" fill="none" xmlns="http://www.w3.org/2000/svg">
<g clip-path="url(#clip0_8_786)">
<path d="M60 11.4007C57.7925 12.3807 55.42 13.0407 52.93 13.3382C55.4725 11.8157 57.425 9.40317 58.3425 6.52817C55.965 7.93817 53.33 8.96317 50.525 9.51567C48.2825 7.12317 45.08 5.62817 41.54 5.62817C33.5925 5.62817 27.7525 13.0432 29.5475 20.7407C19.32 20.2282 10.25 15.3282 4.1775 7.88067C0.9525 13.4132 2.505 20.6507 7.985 24.3157C5.97 24.2507 4.07 23.6982 2.4125 22.7757C2.2775 28.4782 6.365 33.8132 12.285 35.0007C10.5525 35.4707 8.655 35.5807 6.725 35.2107C8.29 40.1007 12.835 43.6582 18.225 43.7582C13.05 47.8157 6.53 49.6282 0 48.8582C5.4475 52.3507 11.92 54.3882 18.87 54.3882C41.725 54.3882 54.6375 35.0857 53.8575 17.7732C56.2625 16.0357 58.35 13.8682 60 11.4007Z" fill="white"/>
</g>
<defs>
<clipPath id="clip0_8_786">
<rect width="60" height="60" fill="white" transform="translate(0 0.00805664)"/>
</clipPath>
</defs>
</svg>
